# xmcd
#
# Track frame offsets: 
#        150
#        16354
#        31006
#        49808
#        68110
#        85512
#        103939
#        120141
#        134793
#        153620
#        171947
#        189374
#
# Disc length: 2766 seconds
#
# Revision: 0
# Processed by: cddbd v1.5.2PL0 Copyright (c) Steve Scherf et al.
# Submitted via: ExactAudioCopyFreeDBPlugin 1.0
#
DISCID=970acc0c
DTITLE=왁스 (Wax) -  왁스 (Wax) - Unplugged Side B
DYEAR=2010
DGENRE=Ballad
TTITLE0=원하고 원망하죠
TTITLE1=벌써 일년
TTITLE2=내게 오는 길
TTITLE3=응급실
TTITLE4=당신과 만난 이 날
TTITLE5=좋은 사람
TTITLE6=원하고 원망하죠
TTITLE7=벌써 일년 (Inst.)
TTITLE8=내게 오는 길 (Inst.)
TTITLE9=응급실 (Inst.)
TTITLE10=당신과 만난 이 날 (Inst.)
TTITLE11=좋은 사람 (Inst.)
EXTD=
EXTT0=
EXTT1=
EXTT2=
EXTT3=
EXTT4=
EXTT5=
EXTT6=
EXTT7=
EXTT8=
EXTT9=
EXTT10=
EXTT11=
PLAYORDER=
